solid 
   facet normal 3.054727e-01 9.522008e-01 -0.000000e+00
      outer loop
         vertex 2.001012e+01 1.026012e+01 2.100000e+00
         vertex 2.001012e+01 1.026012e+01 0.000000e+00
         vertex 1.410413e+01 1.215480e+01 2.100000e+00
      endloop
   endfacet
   facet normal 1.545947e-01 9.879780e-01 -0.000000e+00
      outer loop
         vertex 1.410413e+01 1.215480e+01 0.000000e+00
         vertex 7.976232e+00 1.311367e+01 0.000000e+00
         vertex 7.976232e+00 1.311367e+01 2.100000e+00
      endloop
   endfacet
   facet normal -1.545947e-01 9.879780e-01 0.000000e+00
      outer loop
         vertex 1.773768e+00 1.311367e+01 0.000000e+00
         vertex -4.354128e+00 1.215480e+01 0.000000e+00
         vertex -4.354128e+00 1.215480e+01 2.100000e+00
      endloop
   endfacet
   facet normal -3.054726e-01 9.522009e-01 0.000000e+00
      outer loop
         vertex -1.026012e+01 1.026012e+01 0.000000e+00
         vertex -1.026012e+01 1.026012e+01 2.100000e+00
         vertex -4.354128e+00 1.215480e+01 2.100000e+00
      endloop
   endfacet
   facet normal 0.000000e+00 1.000000e+00 0.000000e+00
      outer loop
         vertex 1.773768e+00 1.311367e+01 2.100000e+00
         vertex 7.976232e+00 1.311367e+01 2.100000e+00
         vertex 7.976232e+00 1.311367e+01 0.000000e+00
      endloop
   endfacet
   facet normal 3.054727e-01 9.522008e-01 0.000000e+00
      outer loop
         vertex 1.410413e+01 1.215480e+01 2.100000e+00
         vertex 2.001012e+01 1.026012e+01 0.000000e+00
         vertex 1.410413e+01 1.215480e+01 0.000000e+00
      endloop
   endfacet
   facet normal -3.054726e-01 9.522009e-01 0.000000e+00
      outer loop
         vertex -4.354128e+00 1.215480e+01 2.100000e+00
         vertex -4.354128e+00 1.215480e+01 0.000000e+00
         vertex -1.026012e+01 1.026012e+01 0.000000e+00
      endloop
   endfacet
   facet normal 0.000000e+00 1.000000e+00 0.000000e+00
      outer loop
         vertex 7.976232e+00 1.311367e+01 0.000000e+00
         vertex 1.773768e+00 1.311367e+01 0.000000e+00
         vertex 1.773768e+00 1.311367e+01 2.100000e+00
      endloop
   endfacet
   facet normal 1.545947e-01 9.879780e-01 0.000000e+00
      outer loop
         vertex 7.976232e+00 1.311367e+01 2.100000e+00
         vertex 1.410413e+01 1.215480e+01 2.100000e+00
         vertex 1.410413e+01 1.215480e+01 0.000000e+00
      endloop
   endfacet
   facet normal -1.545947e-01 9.879780e-01 0.000000e+00
      outer loop
         vertex 1.773768e+00 1.311367e+01 2.100000e+00
         vertex 1.773768e+00 1.311367e+01 0.000000e+00
         vertex -4.354128e+00 1.215480e+01 2.100000e+00
      endloop
   endfacet
   facet normal -7.071068e-01 -7.071068e-01 0.000000e+00
      outer loop
         vertex -1.026012e+01 1.026012e+01 2.100000e+00
         vertex -1.026012e+01 1.026012e+01 0.000000e+00
         vertex 0.000000e+00 0.000000e+00 0.000000e+00
      endloop
   endfacet
   facet normal -7.071068e-01 -7.071068e-01 0.000000e+00
      outer loop
         vertex 0.000000e+00 0.000000e+00 2.100000e+00
         vertex -1.026012e+01 1.026012e+01 2.100000e+00
         vertex 0.000000e+00 0.000000e+00 0.000000e+00
      endloop
   endfacet
   facet normal 0.000000e+00 -1.000000e+00 0.000000e+00
      outer loop
         vertex 2.125000e+00 0.000000e+00 2.100000e+00
         vertex 0.000000e+00 0.000000e+00 2.100000e+00
         vertex 0.000000e+00 0.000000e+00 0.000000e+00
      endloop
   endfacet
   facet normal 0.000000e+00 -1.000000e+00 0.000000e+00
      outer loop
         vertex 2.125000e+00 0.000000e+00 2.100000e+00
         vertex 0.000000e+00 0.000000e+00 0.000000e+00
         vertex 2.125000e+00 0.000000e+00 0.000000e+00
      endloop
   endfacet
   facet normal 1.000000e+00 0.000000e+00 0.000000e+00
      outer loop
         vertex 2.125000e+00 4.000000e+00 0.000000e+00
         vertex 2.125000e+00 0.000000e+00 2.100000e+00
         vertex 2.125000e+00 0.000000e+00 0.000000e+00
      endloop
   endfacet
   facet normal 1.000000e+00 0.000000e+00 -0.000000e+00
      outer loop
         vertex 2.125000e+00 0.000000e+00 2.100000e+00
         vertex 2.125000e+00 4.000000e+00 0.000000e+00
         vertex 2.125000e+00 4.000000e+00 2.100000e+00
      endloop
   endfacet
   facet normal 0.000000e+00 -1.000000e+00 0.000000e+00
      outer loop
         vertex 7.625000e+00 4.000000e+00 2.100000e+00
         vertex 2.125000e+00 4.000000e+00 2.100000e+00
         vertex 2.125000e+00 4.000000e+00 0.000000e+00
      endloop
   endfacet
   facet normal 0.000000e+00 -1.000000e+00 0.000000e+00
      outer loop
         vertex 7.625000e+00 4.000000e+00 2.100000e+00
         vertex 2.125000e+00 4.000000e+00 0.000000e+00
         vertex 7.625000e+00 4.000000e+00 0.000000e+00
      endloop
   endfacet
   facet normal -1.000000e+00 0.000000e+00 -0.000000e+00
      outer loop
         vertex 7.625000e+00 1.925930e-31 0.000000e+00
         vertex 7.625000e+00 4.000000e+00 2.100000e+00
         vertex 7.625000e+00 4.000000e+00 0.000000e+00
      endloop
   endfacet
   facet normal -1.000000e+00 0.000000e+00 0.000000e+00
      outer loop
         vertex 7.625000e+00 4.000000e+00 2.100000e+00
         vertex 7.625000e+00 1.925930e-31 0.000000e+00
         vertex 7.625000e+00 1.925930e-31 2.100000e+00
      endloop
   endfacet
   facet normal -9.063200e-32 -1.000000e+00 -0.000000e+00
      outer loop
         vertex 9.750000e+00 0.000000e+00 2.100000e+00
         vertex 7.625000e+00 1.925930e-31 2.100000e+00
         vertex 7.625000e+00 1.925930e-31 0.000000e+00
      endloop
   endfacet
   facet normal -9.063200e-32 -1.000000e+00 0.000000e+00
      outer loop
         vertex 9.750000e+00 0.000000e+00 2.100000e+00
         vertex 7.625000e+00 1.925930e-31 0.000000e+00
         vertex 9.750000e+00 0.000000e+00 0.000000e+00
      endloop
   endfacet
   facet normal 7.071068e-01 -7.071067e-01 0.000000e+00
      outer loop
         vertex 2.001012e+01 1.026012e+01 2.100000e+00
         vertex 9.750000e+00 0.000000e+00 2.100000e+00
         vertex 9.750000e+00 0.000000e+00 0.000000e+00
      endloop
   endfacet
   facet normal 7.071068e-01 -7.071067e-01 0.000000e+00
      outer loop
         vertex 2.001012e+01 1.026012e+01 2.100000e+00
         vertex 9.750000e+00 0.000000e+00 0.000000e+00
         vertex 2.001012e+01 1.026012e+01 0.000000e+00
      endloop
   endfacet
   facet normal 0.000000e+00 0.000000e+00 1.000000e+00
      outer loop
         vertex 9.750000e+00 0.000000e+00 2.100000e+00
         vertex 2.001012e+01 1.026012e+01 2.100000e+00
         vertex 1.410413e+01 1.215480e+01 2.100000e+00
      endloop
   endfacet
   facet normal -0.000000e+00 0.000000e+00 1.000000e+00
      outer loop
         vertex 7.976232e+00 1.311367e+01 2.100000e+00
         vertex 1.773768e+00 1.311367e+01 2.100000e+00
         vertex 2.125000e+00 4.000000e+00 2.100000e+00
      endloop
   endfacet
   facet normal -0.000000e+00 0.000000e+00 1.000000e+00
      outer loop
         vertex -4.354128e+00 1.215480e+01 2.100000e+00
         vertex -1.026012e+01 1.026012e+01 2.100000e+00
         vertex 0.000000e+00 0.000000e+00 2.100000e+00
      endloop
   endfacet
   facet normal 0.000000e+00 0.000000e+00 1.000000e+00
      outer loop
         vertex 2.125000e+00 0.000000e+00 2.100000e+00
         vertex 2.125000e+00 4.000000e+00 2.100000e+00
         vertex 0.000000e+00 0.000000e+00 2.100000e+00
      endloop
   endfacet
   facet normal 0.000000e+00 0.000000e+00 1.000000e+00
      outer loop
         vertex 7.625000e+00 1.925930e-31 2.100000e+00
         vertex 9.750000e+00 0.000000e+00 2.100000e+00
         vertex 7.625000e+00 4.000000e+00 2.100000e+00
      endloop
   endfacet
   facet normal 0.000000e+00 0.000000e+00 1.000000e+00
      outer loop
         vertex 2.125000e+00 4.000000e+00 2.100000e+00
         vertex 1.773768e+00 1.311367e+01 2.100000e+00
         vertex -4.354128e+00 1.215480e+01 2.100000e+00
      endloop
   endfacet
   facet normal 0.000000e+00 -0.000000e+00 1.000000e+00
      outer loop
         vertex 7.625000e+00 4.000000e+00 2.100000e+00
         vertex 9.750000e+00 0.000000e+00 2.100000e+00
         vertex 1.410413e+01 1.215480e+01 2.100000e+00
      endloop
   endfacet
   facet normal 0.000000e+00 0.000000e+00 1.000000e+00
      outer loop
         vertex 1.410413e+01 1.215480e+01 2.100000e+00
         vertex 7.976232e+00 1.311367e+01 2.100000e+00
         vertex 7.625000e+00 4.000000e+00 2.100000e+00
      endloop
   endfacet
   facet normal 0.000000e+00 0.000000e+00 1.000000e+00
      outer loop
         vertex 7.976232e+00 1.311367e+01 2.100000e+00
         vertex 2.125000e+00 4.000000e+00 2.100000e+00
         vertex 7.625000e+00 4.000000e+00 2.100000e+00
      endloop
   endfacet
   facet normal 0.000000e+00 0.000000e+00 1.000000e+00
      outer loop
         vertex 2.125000e+00 4.000000e+00 2.100000e+00
         vertex -4.354128e+00 1.215480e+01 2.100000e+00
         vertex 0.000000e+00 0.000000e+00 2.100000e+00
      endloop
   endfacet
   facet normal 0.000000e+00 0.000000e+00 -1.000000e+00
      outer loop
         vertex -4.354128e+00 1.215480e+01 0.000000e+00
         vertex 0.000000e+00 0.000000e+00 0.000000e+00
         vertex -1.026012e+01 1.026012e+01 0.000000e+00
      endloop
   endfacet
   facet normal 0.000000e+00 -0.000000e+00 -1.000000e+00
      outer loop
         vertex 0.000000e+00 0.000000e+00 0.000000e+00
         vertex 2.125000e+00 4.000000e+00 0.000000e+00
         vertex 2.125000e+00 0.000000e+00 0.000000e+00
      endloop
   endfacet
   facet normal 0.000000e+00 0.000000e+00 -1.000000e+00
      outer loop
         vertex 7.625000e+00 4.000000e+00 0.000000e+00
         vertex 9.750000e+00 0.000000e+00 0.000000e+00
         vertex 7.625000e+00 1.925930e-31 0.000000e+00
      endloop
   endfacet
   facet normal 0.000000e+00 -0.000000e+00 -1.000000e+00
      outer loop
         vertex 7.625000e+00 4.000000e+00 0.000000e+00
         vertex 7.976232e+00 1.311367e+01 0.000000e+00
         vertex 1.410413e+01 1.215480e+01 0.000000e+00
      endloop
   endfacet
   facet normal 0.000000e+00 0.000000e+00 -1.000000e+00
      outer loop
         vertex 2.125000e+00 4.000000e+00 0.000000e+00
         vertex -4.354128e+00 1.215480e+01 0.000000e+00
         vertex 1.773768e+00 1.311367e+01 0.000000e+00
      endloop
   endfacet
   facet normal -0.000000e+00 0.000000e+00 -1.000000e+00
      outer loop
         vertex -4.354128e+00 1.215480e+01 0.000000e+00
         vertex 2.125000e+00 4.000000e+00 0.000000e+00
         vertex 0.000000e+00 0.000000e+00 0.000000e+00
      endloop
   endfacet
   facet normal 0.000000e+00 0.000000e+00 -1.000000e+00
      outer loop
         vertex 2.125000e+00 4.000000e+00 0.000000e+00
         vertex 7.976232e+00 1.311367e+01 0.000000e+00
         vertex 7.625000e+00 4.000000e+00 0.000000e+00
      endloop
   endfacet
   facet normal -0.000000e+00 0.000000e+00 -1.000000e+00
      outer loop
         vertex 1.410413e+01 1.215480e+01 0.000000e+00
         vertex 2.001012e+01 1.026012e+01 0.000000e+00
         vertex 9.750000e+00 0.000000e+00 0.000000e+00
      endloop
   endfacet
   facet normal 0.000000e+00 0.000000e+00 -1.000000e+00
      outer loop
         vertex 1.410413e+01 1.215480e+01 0.000000e+00
         vertex 9.750000e+00 0.000000e+00 0.000000e+00
         vertex 7.625000e+00 4.000000e+00 0.000000e+00
      endloop
   endfacet
   facet normal -0.000000e+00 0.000000e+00 -1.000000e+00
      outer loop
         vertex 1.773768e+00 1.311367e+01 0.000000e+00
         vertex 7.976232e+00 1.311367e+01 0.000000e+00
         vertex 2.125000e+00 4.000000e+00 0.000000e+00
      endloop
   endfacet
endsolid
